<?xml version="1.0" encoding="UTF-8"?>
<svg width="23px" height="22px" viewBox="0 0 23 22" version="1.1" xmlns="http://www.w3.org/2000/svg" xmlns:xlink="http://www.w3.org/1999/xlink">
    <!-- Generator: Sketch 41.2 (35397) - http://www.bohemiancoding.com/sketch -->
    <title>truck right</title>
    <desc>Created with Sketch.</desc>
    <defs></defs>
    <g id="Page-1" stroke="none" stroke-width="1" fill="none" fill-rule="evenodd" stroke-linejoin="round">
        <g id="dash" transform="translate(-31.000000, -309.000000)" stroke="#7D7D7D">
            <g id="truck-right" transform="translate(32.000000, 310.000000)">
                <path d="M9.54545455,5 C9.54545455,7.51090909 7.51,9.54545455 5,9.54545455 C2.48909091,9.54545455 0.454545455,7.51090909 0.454545455,5 C0.454545455,2.48909091 2.48909091,0.454545455 5,0.454545455 C7.51,0.454545455 9.54545455,2.48909091 9.54545455,5 Z" id="Stroke-1"></path>
                <polyline id="Stroke-3" stroke-linecap="round" points="6.81818182 5.90909091 5 5.90909091 5 2.72727273"></polyline>
                <polyline id="Stroke-5" stroke-linecap="round" points="15 11.3636364 19.0909091 11.3636364 21.3636364 15 21.3636364 17.7272727 19.0118182 17.7272727"></polyline>
                <polyline id="Stroke-7" stroke-linecap="round" points="9.921 17.7272727 15.0100909 17.7272727 15.0000909 8.63636364 10.4546364 8.63636364"></polyline>
                <polyline id="Stroke-9" stroke-linecap="round" points="5 11.3636364 5 17.7272727 7.35181818 17.7272727"></polyline>
                <path d="M19.0909091,18.1818182 C19.0909091,18.9345455 18.4809091,19.5454545 17.7272727,19.5454545 C16.9745455,19.5454545 16.3636364,18.9345455 16.3636364,18.1818182 C16.3636364,17.4281818 16.9745455,16.8181818 17.7272727,16.8181818 C18.4809091,16.8181818 19.0909091,17.4281818 19.0909091,18.1818182 Z" id="Stroke-11" stroke-linecap="round"></path>
                <path d="M10,18.1818182 C10,18.9345455 9.39,19.5454545 8.63636364,19.5454545 C7.88363636,19.5454545 7.27272727,18.9345455 7.27272727,18.1818182 C7.27272727,17.4281818 7.88363636,16.8181818 8.63636364,16.8181818 C9.39,16.8181818 10,17.4281818 10,18.1818182 Z" id="Stroke-13" stroke-linecap="round"></path>
                <path d="M0.454545455,13.1818182 L3.18181818,13.1863636" id="Stroke-15" stroke-linecap="round"></path>
                <path d="M1.81818182,15 L3.18181818,15.0045455" id="Stroke-17" stroke-linecap="round"></path>
                <path d="M2.72727273,16.8181818 L3.18181818,16.8227273" id="Stroke-19" stroke-linecap="round"></path>
                <path d="M21.3636364,15 L15,15" id="Stroke-21" stroke-linecap="round"></path>
                <path d="M15.0097273,17.7272727 L16.4479091,17.7272727" id="Stroke-23" stroke-linecap="round"></path>
            </g>
        </g>
    </g>
</svg>